<svg width="657.9px" height="120.8px" xmlns="http://www.w3.org/2000/svg" viewBox="-78.9375 14.600000000000001 657.875 120.8" style="background: rgba(0, 0, 0, 0)" preserveAspectRatio="xMidYMid"><defs><linearGradient id="editing-gradient-gradient" x1="0" x2="1" y1="0.5" y2="0.5" gradientUnits="objectBoundingBox"><stop offset="0" stop-color="#ff00ff"></stop><stop offset="1" stop-color="#00ffff"></stop></linearGradient></defs><g><g transform="matrix(1.4,0,0,1.5,-57.4,170.5)"><path d="M 4.8 -48.9 L -9.1 -48.9 L -1 -91.1 L 13.1 -91.1 L 4.8 -48.9 Z M 60.6 -47.6 L 60.6 -47.6 L 60.6 -47.6 Q 52.8 -47.6 52.8 -53.6 L 52.8 -53.6 L 52.8 -53.6 Q 52.8 -56.2 54 -61.3 L 54 -61.3 L 54 -61.3 Q 55.1 -66.4 55.5 -68.5 L 55.5 -68.5 L 55.5 -68.5 Q 56.4 -73.1 56.4 -74.6 L 56.4 -74.6 L 56.4 -74.6 Q 56.4 -77.9 53.9 -77.9 L 53.9 -77.9 L 53.9 -77.9 Q 52.3 -77.9 50.8 -75.7 L 50.8 -75.7 L 50.8 -75.7 Q 49.2 -73.5 48.5 -69 L 48.5 -69 L 44.6 -48.9 L 32.1 -47.6 L 35.6 -65 L 35.6 -65 Q 36.1 -67.9 36.6 -71.2 L 36.6 -71.2 L 36.6 -71.2 Q 37.2 -74.4 37.2 -74.9 L 37.2 -74.9 L 37.2 -74.9 Q 37.2 -77.9 35 -77.9 L 35 -77.9 L 35 -77.9 Q 33.5 -77.9 31.9 -75.7 L 31.9 -75.7 L 31.9 -75.7 Q 30.3 -73.5 29.4 -69 L 29.4 -69 L 25.5 -48.9 L 12.9 -47.6 L 19.6 -81.5 L 30 -82.8 L 29 -76.3 L 29 -76.3 Q 30.6 -79.8 33.7 -81.3 L 33.7 -81.3 L 33.7 -81.3 Q 36.8 -82.8 41.6 -82.8 L 41.6 -82.8 L 41.6 -82.8 Q 44.3 -82.8 46.1 -81.5 L 46.1 -81.5 L 46.1 -81.5 Q 47.9 -80.1 48.5 -77.9 L 48.5 -77.9 L 48.5 -77.9 Q 49.6 -80.2 52.4 -81.5 L 52.4 -81.5 L 52.4 -81.5 Q 55.1 -82.8 58.6 -82.8 L 58.6 -82.8 L 58.6 -82.8 Q 62 -82.8 63.7 -82.1 L 63.7 -82.1 L 63.7 -82.1 Q 65.4 -81.3 66.4 -80.1 L 66.4 -80.1 L 66.4 -80.1 Q 68.1 -77.9 68.1 -73.8 L 68.1 -73.8 L 68.1 -73.8 Q 68.1 -69.7 66.4 -61.4 L 66.4 -61.4 L 66.4 -61.4 Q 65.5 -57.3 65.5 -55.8 L 65.5 -55.8 L 65.5 -55.8 Q 65.5 -54.3 66.4 -53.4 L 66.4 -53.4 L 66.4 -53.4 Q 67.2 -52.5 68.5 -52.3 L 68.5 -52.3 L 68.5 -52.3 Q 67.9 -50.2 65.7 -48.9 L 65.7 -48.9 L 65.7 -48.9 Q 63.5 -47.6 60.6 -47.6 Z M 76.2 -50.8 L 76.2 -50.8 L 76.2 -50.8 Q 74.7 -52.5 74 -55.1 L 74 -55.1 L 74 -55.1 Q 73.4 -57.7 73.4 -62 L 73.4 -62 L 73.4 -62 Q 73.4 -66.3 74.8 -70.2 L 74.8 -70.2 L 74.8 -70.2 Q 76.3 -74.1 79 -76.9 L 79 -76.9 L 79 -76.9 Q 84.5 -82.8 93.6 -82.8 L 93.6 -82.8 L 93.6 -82.8 Q 96.9 -82.8 99.2 -81.7 L 99.2 -81.7 L 110.2 -82.8 L 105.4 -57.8 L 105.4 -57.8 Q 105.2 -57.1 105.2 -55.7 L 105.2 -55.7 L 105.2 -55.7 Q 105.2 -54.3 106.1 -53.4 L 106.1 -53.4 L 106.1 -53.4 Q 107 -52.5 108.3 -52.3 L 108.3 -52.3 L 108.3 -52.3 Q 107.6 -50.2 105.3 -48.9 L 105.3 -48.9 L 105.3 -48.9 Q 102.9 -47.6 100.3 -47.6 L 100.3 -47.6 L 100.3 -47.6 Q 97.7 -47.6 95.9 -48.6 L 95.9 -48.6 L 95.9 -48.6 Q 94.2 -49.6 93.7 -51.3 L 93.7 -51.3 L 93.7 -51.3 Q 92.6 -49.7 90.5 -48.6 L 90.5 -48.6 L 90.5 -48.6 Q 88.3 -47.6 85.4 -47.6 L 85.4 -47.6 L 85.4 -47.6 Q 82.5 -47.6 80.1 -48.4 L 80.1 -48.4 L 80.1 -48.4 Q 77.7 -49.1 76.2 -50.8 Z M 89.7 -76.8 L 89.7 -76.8 L 89.7 -76.8 Q 89 -75.6 88.4 -73.7 L 88.4 -73.7 L 88.4 -73.7 Q 87.7 -71.7 86.7 -66.5 L 86.7 -66.5 L 86.7 -66.5 Q 85.6 -61.3 85.6 -57.6 L 85.6 -57.6 L 85.6 -57.6 Q 85.6 -53.9 86.2 -52.8 L 86.2 -52.8 L 86.2 -52.8 Q 86.8 -51.7 87.8 -51.7 L 87.8 -51.7 L 87.8 -51.7 Q 89.8 -51.7 91.3 -53.7 L 91.3 -53.7 L 91.3 -53.7 Q 92.8 -55.6 93.4 -59.1 L 93.4 -59.1 L 96.8 -77.8 L 96.8 -77.8 Q 95.5 -79 93.9 -79 L 93.9 -79 L 93.9 -79 Q 92.3 -79 91.4 -78.5 L 91.4 -78.5 L 91.4 -78.5 Q 90.5 -77.9 89.7 -76.8 Z M 117.9 -75.6 L 117.9 -75.6 L 117.9 -75.6 Q 120.1 -78.7 123.4 -80.8 L 123.4 -80.8 L 123.4 -80.8 Q 126.7 -82.8 130.7 -82.8 L 130.7 -82.8 L 130.7 -82.8 Q 134.8 -82.8 136.7 -81.5 L 136.7 -81.5 L 149.2 -82.8 L 144.9 -58.2 L 144.9 -58.2 Q 142.6 -45.7 137.9 -40.8 L 137.9 -40.8 L 137.9 -40.8 Q 133.3 -36.1 124.5 -36.1 L 124.5 -36.1 L 124.5 -36.1 Q 117.8 -36.1 114 -38.2 L 114 -38.2 L 114 -38.2 Q 110.1 -40.3 110.1 -43.8 L 110.1 -43.8 L 110.1 -43.8 Q 110.1 -46.5 112.1 -48 L 112.1 -48 L 112.1 -48 Q 114.1 -49.5 117.2 -49.5 L 117.2 -49.5 L 117.2 -49.5 Q 119.8 -49.5 121.9 -48.2 L 121.9 -48.2 L 121.9 -48.2 Q 123.1 -47.6 123.7 -46.7 L 123.7 -46.7 L 123.7 -46.7 Q 122.2 -45.4 122.2 -43.3 L 122.2 -43.3 L 122.2 -43.3 Q 122.2 -40.6 124.8 -40.6 L 124.8 -40.6 L 124.8 -40.6 Q 129.1 -40.6 131.5 -50.7 L 131.5 -50.7 L 131.5 -50.7 Q 132.2 -53.4 132.8 -56.2 L 132.8 -56.2 L 132.8 -56.2 Q 129.9 -52.7 123.4 -52.7 L 123.4 -52.7 L 123.4 -52.7 Q 118.8 -52.7 116.2 -54.8 L 116.2 -54.8 L 116.2 -54.8 Q 113.6 -57 113.6 -62.1 L 113.6 -62.1 L 113.6 -62.1 Q 113.6 -65.3 114.7 -68.9 L 114.7 -68.9 L 114.7 -68.9 Q 115.7 -72.6 117.9 -75.6 Z M 126.2 -61.9 L 126.2 -61.9 L 126.2 -61.9 Q 126.2 -57.6 128.5 -57.6 L 128.5 -57.6 L 128.5 -57.6 Q 130 -57.6 131.5 -59.3 L 131.5 -59.3 L 131.5 -59.3 Q 132.6 -60.6 133.1 -62.6 L 133.1 -62.6 L 136.4 -79 L 136.4 -79 Q 136 -79.1 135.7 -79.2 L 135.7 -79.2 L 135.7 -79.2 Q 135.1 -79.5 134.2 -79.5 L 134.2 -79.5 L 134.2 -79.5 Q 130.3 -79.5 128 -73.1 L 128 -73.1 L 128 -73.1 Q 126.2 -68.1 126.2 -61.9 Z M 177.6 -59.7 L 177.6 -59.7 L 177.6 -59.7 Q 179.2 -58.6 179.2 -56.2 L 179.2 -56.2 L 179.2 -56.2 Q 179.2 -53.8 178 -52.3 L 178 -52.3 L 178 -52.3 Q 176.8 -50.7 174.8 -49.7 L 174.8 -49.7 L 174.8 -49.7 Q 170.7 -47.6 166.3 -47.6 L 166.3 -47.6 L 166.3 -47.6 Q 161.9 -47.6 159.3 -48.6 L 159.3 -48.6 L 159.3 -48.6 Q 156.7 -49.5 155 -51.3 L 155 -51.3 L 155 -51.3 Q 151.6 -54.7 151.6 -60.9 L 151.6 -60.9 L 151.6 -60.9 Q 151.6 -70.6 156.8 -76.5 L 156.8 -76.5 L 156.8 -76.5 Q 162.5 -82.8 172.3 -82.8 L 172.3 -82.8 L 172.3 -82.8 Q 178.3 -82.8 181.3 -80.2 L 181.3 -80.2 L 181.3 -80.2 Q 183.6 -78.3 183.6 -75.2 L 183.6 -75.2 L 183.6 -75.2 Q 183.6 -63.9 164.1 -63.9 L 164.1 -63.9 L 164.1 -63.9 Q 163.9 -62.3 163.9 -60.9 L 163.9 -60.9 L 163.9 -60.9 Q 163.9 -57.9 165.2 -56.8 L 165.2 -56.8 L 165.2 -56.8 Q 166.5 -55.7 168.9 -55.7 L 168.9 -55.7 L 168.9 -55.7 Q 171.4 -55.7 174 -56.8 L 174 -56.8 L 174 -56.8 Q 176.5 -57.9 177.6 -59.7 Z M 164.6 -66.7 L 164.6 -66.7 L 164.6 -66.7 Q 169.1 -66.7 171.7 -69.5 L 171.7 -69.5 L 171.7 -69.5 Q 174.4 -72.2 174.4 -76.5 L 174.4 -76.5 L 174.4 -76.5 Q 174.4 -77.9 173.8 -78.7 L 173.8 -78.7 L 173.8 -78.7 Q 173.3 -79.5 172.2 -79.5 L 172.2 -79.5 L 172.2 -79.5 Q 171.1 -79.5 170.2 -79.1 L 170.2 -79.1 L 170.2 -79.1 Q 169.2 -78.7 168.3 -77.3 L 168.3 -77.3 L 168.3 -77.3 Q 165.9 -74.1 164.6 -66.7 Z M 204.9 -71.3 L 204.9 -71.3 L 204.9 -71.3 Q 205.8 -73.7 205.8 -75.8 L 205.8 -75.8 L 205.8 -75.8 Q 205.8 -79.5 202.7 -79.5 L 202.7 -79.5 L 202.7 -79.5 Q 201.1 -79.5 199.8 -78.1 L 199.8 -78.1 L 199.8 -78.1 Q 198.5 -76.7 198.5 -74.9 L 198.5 -74.9 L 198.5 -74.9 Q 198.5 -73.6 199.5 -72.6 L 199.5 -72.6 L 199.5 -72.6 Q 201 -71.2 204.8 -68.9 L 204.8 -68.9 L 204.8 -68.9 Q 208.5 -66.5 210 -64.7 L 210 -64.7 L 210 -64.7 Q 211.4 -62.8 211.4 -60.2 L 211.4 -60.2 L 211.4 -60.2 Q 211.4 -57.6 210.2 -55.2 L 210.2 -55.2 L 210.2 -55.2 Q 208.9 -52.9 206.7 -51.2 L 206.7 -51.2 L 206.7 -51.2 Q 201.9 -47.6 194.2 -47.6 L 194.2 -47.6 L 194.2 -47.6 Q 190 -47.6 186.8 -49.8 L 186.8 -49.8 L 186.8 -49.8 Q 183.6 -51.9 183.6 -54.4 L 183.6 -54.4 L 183.6 -54.4 Q 183.6 -56.9 185.5 -58.4 L 185.5 -58.4 L 185.5 -58.4 Q 187.3 -59.8 190 -59.8 L 190 -59.8 L 190 -59.8 Q 192.7 -59.8 194.3 -58.8 L 194.3 -58.8 L 194.3 -58.8 Q 193.5 -56.7 193.5 -55.3 L 193.5 -55.3 L 193.5 -55.3 Q 193.5 -51.1 197.1 -51.1 L 197.1 -51.1 L 197.1 -51.1 Q 198.6 -51.1 199.6 -52 L 199.6 -52 L 199.6 -52 Q 200.7 -53 200.7 -54.6 L 200.7 -54.6 L 200.7 -54.6 Q 200.7 -57.9 195.2 -61.4 L 195.2 -61.4 L 195.2 -61.4 Q 190.7 -64.3 189.7 -65.5 L 189.7 -65.5 L 189.7 -65.5 Q 187.9 -67.5 187.9 -70.1 L 187.9 -70.1 L 187.9 -70.1 Q 187.9 -72.6 189.2 -75.1 L 189.2 -75.1 L 189.2 -75.1 Q 190.4 -77.5 192.6 -79.2 L 192.6 -79.2 L 192.6 -79.2 Q 197.3 -82.8 205.4 -82.8 L 205.4 -82.8 L 205.4 -82.8 Q 209.6 -82.8 212 -81.1 L 212 -81.1 L 212 -81.1 Q 214.5 -79.5 214.5 -76.7 L 214.5 -76.7 L 214.5 -76.7 Q 214.5 -73.8 212.8 -72.2 L 212.8 -72.2 L 212.8 -72.2 Q 211.1 -70.6 208 -70.6 L 208 -70.6 L 208 -70.6 Q 205.9 -70.6 204.9 -71.3 Z M 256 -69.5 L 268.9 -70.6 L 268.9 -70.6 Q 264.3 -60.5 264.3 -48.8 L 264.3 -48.8 L 264.3 -48.8 Q 262.6 -47.6 260 -47.6 L 260 -47.6 L 260 -47.6 Q 257.5 -47.6 255.9 -48.8 L 255.9 -48.8 L 255.9 -48.8 Q 254.3 -50 254 -51.2 L 254 -51.2 L 254 -51.2 Q 252.4 -49.5 249.8 -48.6 L 249.8 -48.6 L 249.8 -48.6 Q 247.2 -47.6 244.4 -47.6 L 244.4 -47.6 L 244.4 -47.6 Q 241.7 -47.6 239.3 -48.5 L 239.3 -48.5 L 239.3 -48.5 Q 236.9 -49.4 235 -51.4 L 235 -51.4 L 235 -51.4 Q 230.9 -55.7 230.9 -64 L 230.9 -64 L 230.9 -64 Q 230.9 -76.8 237.8 -84.5 L 237.8 -84.5 L 237.8 -84.5 Q 244.8 -92.4 257.3 -92.4 L 257.3 -92.4 L 257.3 -92.4 Q 266 -92.4 269 -87.9 L 269 -87.9 L 269 -87.9 Q 270 -86.5 270 -84.8 L 270 -84.8 L 270 -84.8 Q 270 -83.1 269.2 -81.7 L 269.2 -81.7 L 269.2 -81.7 Q 268.5 -80.2 267.4 -79.1 L 267.4 -79.1 L 267.4 -79.1 Q 264.6 -76.5 261.2 -76.5 L 261.2 -76.5 L 261.2 -76.5 Q 259.9 -76.5 258.6 -77 L 258.6 -77 L 258.6 -77 Q 258.8 -78.9 258.8 -81.1 L 258.8 -81.1 L 258.8 -81.1 Q 258.8 -83.4 258.7 -84.4 L 258.7 -84.4 L 258.7 -84.4 Q 258.5 -85.4 258.1 -86.3 L 258.1 -86.3 L 258.1 -86.3 Q 257.3 -88 255.5 -88 L 255.5 -88 L 255.5 -88 Q 253.7 -88 251.6 -86 L 251.6 -86 L 251.6 -86 Q 249.6 -84.1 248 -80.9 L 248 -80.9 L 248 -80.9 Q 244.5 -73.7 244.5 -65.1 L 244.5 -65.1 L 244.5 -65.1 Q 244.5 -61.1 246 -58.3 L 246 -58.3 L 246 -58.3 Q 247.7 -55.2 250.7 -55.2 L 250.7 -55.2 L 250.7 -55.2 Q 251.7 -55.2 252.6 -55.7 L 252.6 -55.7 L 252.6 -55.7 Q 253.5 -56.2 253.9 -56.6 L 253.9 -56.6 L 256 -69.5 Z M 274.8 -50.8 L 274.8 -50.8 L 274.8 -50.8 Q 273.3 -52.5 272.6 -55.1 L 272.6 -55.1 L 272.6 -55.1 Q 272 -57.7 272 -62 L 272 -62 L 272 -62 Q 272 -66.3 273.4 -70.2 L 273.4 -70.2 L 273.4 -70.2 Q 274.9 -74.1 277.6 -76.9 L 277.6 -76.9 L 277.6 -76.9 Q 283.1 -82.8 292.2 -82.8 L 292.2 -82.8 L 292.2 -82.8 Q 295.5 -82.8 297.8 -81.7 L 297.8 -81.7 L 308.8 -82.8 L 304 -57.8 L 304 -57.8 Q 303.8 -57.1 303.8 -55.7 L 303.8 -55.7 L 303.8 -55.7 Q 303.8 -54.3 304.7 -53.4 L 304.7 -53.4 L 304.7 -53.4 Q 305.6 -52.5 306.8 -52.3 L 306.8 -52.3 L 306.8 -52.3 Q 306.2 -50.2 303.9 -48.9 L 303.9 -48.9 L 303.9 -48.9 Q 301.5 -47.6 298.9 -47.6 L 298.9 -47.6 L 298.9 -47.6 Q 296.3 -47.6 294.5 -48.6 L 294.5 -48.6 L 294.5 -48.6 Q 292.8 -49.6 292.3 -51.3 L 292.3 -51.3 L 292.3 -51.3 Q 291.2 -49.7 289.1 -48.6 L 289.1 -48.6 L 289.1 -48.6 Q 286.9 -47.6 284 -47.6 L 284 -47.6 L 284 -47.6 Q 281.1 -47.6 278.7 -48.4 L 278.7 -48.4 L 278.7 -48.4 Q 276.3 -49.1 274.8 -50.8 Z M 288.3 -76.8 L 288.3 -76.8 L 288.3 -76.8 Q 287.6 -75.6 286.9 -73.7 L 286.9 -73.7 L 286.9 -73.7 Q 286.3 -71.7 285.2 -66.5 L 285.2 -66.5 L 285.2 -66.5 Q 284.2 -61.3 284.2 -57.6 L 284.2 -57.6 L 284.2 -57.6 Q 284.2 -53.9 284.8 -52.8 L 284.8 -52.8 L 284.8 -52.8 Q 285.3 -51.7 286.4 -51.7 L 286.4 -51.7 L 286.4 -51.7 Q 288.4 -51.7 289.9 -53.7 L 289.9 -53.7 L 289.9 -53.7 Q 291.4 -55.6 292 -59.1 L 292 -59.1 L 295.4 -77.8 L 295.4 -77.8 Q 294 -79 292.5 -79 L 292.5 -79 L 292.5 -79 Q 290.9 -79 290 -78.5 L 290 -78.5 L 290 -78.5 Q 289.1 -77.9 288.3 -76.8 Z M 327.5 -52.4 L 327.5 -52.4 L 327.5 -52.4 Q 325.5 -47.6 319.2 -47.6 L 319.2 -47.6 L 319.2 -47.6 Q 316 -47.6 314 -49.8 L 314 -49.8 L 314 -49.8 Q 312.3 -51.7 312.3 -53.8 L 312.3 -53.8 L 312.3 -53.8 Q 312.3 -58.6 314.5 -69.1 L 314.5 -69.1 L 319.2 -93.7 L 332.2 -95 L 326 -62.6 L 326 -62.6 Q 324.9 -57.8 324.9 -56.2 L 324.9 -56.2 L 324.9 -56.2 Q 324.9 -52.5 327.5 -52.4 Z M 348.3 -52.4 L 348.3 -52.4 L 348.3 -52.4 Q 346.3 -47.6 339.9 -47.6 L 339.9 -47.6 L 339.9 -47.6 Q 336.7 -47.6 334.7 -49.8 L 334.7 -49.8 L 334.7 -49.8 Q 333 -51.7 333 -53.8 L 333 -53.8 L 333 -53.8 Q 333 -58.6 335.3 -69.1 L 335.3 -69.1 L 339.9 -93.7 L 352.9 -95 L 346.7 -62.6 L 346.7 -62.6 Q 345.6 -57.8 345.6 -56.2 L 345.6 -56.2 L 345.6 -56.2 Q 345.6 -52.5 348.3 -52.4 Z M 379.6 -59.7 L 379.6 -59.7 L 379.6 -59.7 Q 381.2 -58.6 381.2 -56.2 L 381.2 -56.2 L 381.2 -56.2 Q 381.2 -53.8 380 -52.3 L 380 -52.3 L 380 -52.3 Q 378.8 -50.7 376.8 -49.7 L 376.8 -49.7 L 376.8 -49.7 Q 372.7 -47.6 368.3 -47.6 L 368.3 -47.6 L 368.3 -47.6 Q 363.9 -47.6 361.3 -48.6 L 361.3 -48.6 L 361.3 -48.6 Q 358.7 -49.5 357 -51.3 L 357 -51.3 L 357 -51.3 Q 353.6 -54.7 353.6 -60.9 L 353.6 -60.9 L 353.6 -60.9 Q 353.6 -70.6 358.8 -76.5 L 358.8 -76.5 L 358.8 -76.5 Q 364.4 -82.8 374.2 -82.8 L 374.2 -82.8 L 374.2 -82.8 Q 380.3 -82.8 383.3 -80.2 L 383.3 -80.2 L 383.3 -80.2 Q 385.6 -78.3 385.6 -75.2 L 385.6 -75.2 L 385.6 -75.2 Q 385.6 -63.9 366.1 -63.9 L 366.1 -63.9 L 366.1 -63.9 Q 365.9 -62.3 365.9 -60.9 L 365.9 -60.9 L 365.9 -60.9 Q 365.9 -57.9 367.2 -56.8 L 367.2 -56.8 L 367.2 -56.8 Q 368.5 -55.7 370.9 -55.7 L 370.9 -55.7 L 370.9 -55.7 Q 373.3 -55.7 375.9 -56.8 L 375.9 -56.8 L 375.9 -56.8 Q 378.5 -57.9 379.6 -59.7 Z M 366.6 -66.7 L 366.6 -66.7 L 366.6 -66.7 Q 371.1 -66.7 373.7 -69.5 L 373.7 -69.5 L 373.7 -69.5 Q 376.4 -72.2 376.4 -76.5 L 376.4 -76.5 L 376.4 -76.5 Q 376.4 -77.9 375.8 -78.7 L 375.8 -78.7 L 375.8 -78.7 Q 375.3 -79.5 374.2 -79.5 L 374.2 -79.5 L 374.2 -79.5 Q 373.1 -79.5 372.2 -79.1 L 372.2 -79.1 L 372.2 -79.1 Q 371.2 -78.7 370.3 -77.3 L 370.3 -77.3 L 370.3 -77.3 Q 367.9 -74.1 366.6 -66.7 Z M 407.8 -66.9 L 407.8 -66.9 L 407.8 -66.9 Q 410.1 -71 410.1 -75.1 L 410.1 -75.1 L 410.1 -75.1 Q 410.1 -77.9 408.1 -77.9 L 408.1 -77.9 L 408.1 -77.9 Q 406.6 -77.9 405 -75.3 L 405 -75.3 L 405 -75.3 Q 403.3 -72.6 402.8 -69.2 L 402.8 -69.2 L 399.5 -48.9 L 386.2 -47.6 L 392.7 -81.5 L 403.3 -82.8 L 402.1 -76.3 L 402.1 -76.3 Q 405.3 -82.8 412.3 -82.8 L 412.3 -82.8 L 412.3 -82.8 Q 416 -82.8 418 -80.9 L 418 -80.9 L 418 -80.9 Q 420.1 -79 420.1 -75 L 420.1 -75 L 420.1 -75 Q 420.1 -71.1 417.5 -68.6 L 417.5 -68.6 L 417.5 -68.6 Q 414.9 -66.1 410.5 -66.1 L 410.5 -66.1 L 410.5 -66.1 Q 408.5 -66.1 407.8 -66.9 Z M 441.4 -56.1 L 441.4 -56.1 L 441.4 -56.1 Q 438.1 -52.7 432 -52.7 L 432 -52.7 L 432 -52.7 Q 424.4 -52.7 422.8 -58.2 L 422.8 -58.2 L 422.8 -58.2 Q 422.3 -59.9 422.3 -61.7 L 422.3 -61.7 L 422.3 -61.7 Q 422.3 -63.6 422.7 -65.5 L 422.7 -65.5 L 425.7 -81.5 L 438.7 -82.8 L 435.2 -64.2 L 435.2 -64.2 Q 435 -63.3 434.8 -62.5 L 434.8 -62.5 L 434.8 -62.5 Q 434.7 -61.6 434.7 -60.6 L 434.7 -60.6 L 434.7 -60.6 Q 434.7 -59.7 435 -59.1 L 435 -59.1 L 435 -59.1 Q 435.3 -58.5 435.7 -58.1 L 435.7 -58.1 L 435.7 -58.1 Q 436.5 -57.6 437.9 -57.6 L 437.9 -57.6 L 437.9 -57.6 Q 439.3 -57.6 440.4 -59.3 L 440.4 -59.3 L 440.4 -59.3 Q 441.6 -60.9 442.2 -63.8 L 442.2 -63.8 L 445.7 -81.5 L 458.3 -82.8 L 453.5 -57.7 L 453.5 -57.7 Q 451.2 -45.4 446.3 -40.5 L 446.3 -40.5 L 446.3 -40.5 Q 443.8 -38 440.6 -37 L 440.6 -37 L 440.6 -37 Q 437.3 -36 433.2 -36 L 433.2 -36 L 433.2 -36 Q 426.5 -36 422.6 -38.1 L 422.6 -38.1 L 422.6 -38.1 Q 418.8 -40.2 418.8 -43.8 L 418.8 -43.8 L 418.8 -43.8 Q 418.8 -46.4 420.8 -47.9 L 420.8 -47.9 L 420.8 -47.9 Q 422.8 -49.4 425.8 -49.4 L 425.8 -49.4 L 425.8 -49.4 Q 428.5 -49.4 430.6 -48.2 L 430.6 -48.2 L 430.6 -48.2 Q 431.8 -47.5 432.4 -46.6 L 432.4 -46.6 L 432.4 -46.6 Q 430.9 -45.4 430.9 -43.3 L 430.9 -43.3 L 430.9 -43.3 Q 430.9 -40.4 433.4 -40.4 L 433.4 -40.4 L 433.4 -40.4 Q 437.7 -40.4 440.1 -50.2 L 440.1 -50.2 L 440.1 -50.2 Q 440.8 -53 441.4 -56.1 Z" fill="url(#editing-gradient-gradient)"></path></g></g><style>text {
  font-size: 64px;
  font-family: Arial Black;
  dominant-baseline: central;
  text-anchor: middle;
}</style></svg>